<svg width="20" height="20" viewBox="0 0 20 20" fill="none" stroke="currentColor" xmlns="http://www.w3.org/2000/svg">
<path d="M18.3333 5.00033V7.01699C18.3333 8.33366 17.4999 9.16699 16.1832 9.16699H13.3333V3.34199C13.3333 2.41699 14.0916 1.66699 15.0166 1.66699C15.9249 1.67533 16.7583 2.04199 17.3583 2.64199C17.9583 3.25033 18.3333 4.08366 18.3333 5.00033Z" stroke-width="1.5" stroke-miterlimit="10" stroke-linecap="round" stroke-linejoin="round"/>
<path d="M1.66675 5.83366V17.5003C1.66675 18.192 2.45006 18.5837 3.00006 18.167L4.42508 17.1003C4.75841 16.8503 5.22509 16.8837 5.52509 17.1837L6.9084 18.5753C7.2334 18.9003 7.76677 18.9003 8.09177 18.5753L9.49176 17.1753C9.78343 16.8837 10.2501 16.8503 10.5751 17.1003L12.0001 18.167C12.5501 18.5753 13.3334 18.1837 13.3334 17.5003V3.33366C13.3334 2.41699 14.0834 1.66699 15.0001 1.66699H5.83341H5.00008C2.50008 1.66699 1.66675 3.15866 1.66675 5.00033V5.83366Z" stroke-width="1.5" stroke-miterlimit="10" stroke-linecap="round" stroke-linejoin="round"/>
<path d="M5 7.5H10" stroke-width="1.5" stroke-linecap="round" stroke-linejoin="round"/>
<path d="M5.625 10.833H9.375" stroke-width="1.5" stroke-linecap="round" stroke-linejoin="round"/>
</svg>
