<svg width="15" height="15" viewBox="0 0 15 15" fill="none" xmlns="http://www.w3.org/2000/svg">
<g clip-path="url(#clip0_3876_5063)">
<path d="M7.50009 14.0596C6.76145 14.061 6.02983 13.9164 5.34726 13.6341C4.6647 13.3518 4.04464 12.9374 3.52274 12.4147C3.47797 12.3715 3.44226 12.3198 3.4177 12.2626C3.39313 12.2054 3.3802 12.1439 3.37966 12.0816C3.37912 12.0194 3.39098 11.9577 3.41454 11.9001C3.43811 11.8425 3.47292 11.7901 3.51693 11.7461C3.56094 11.7021 3.61328 11.6673 3.67089 11.6437C3.7285 11.6201 3.79022 11.6083 3.85246 11.6088C3.9147 11.6094 3.97621 11.6223 4.0334 11.6469C4.09059 11.6714 4.14231 11.7071 4.18555 11.7519C4.84111 12.4075 5.67634 12.8539 6.58563 13.0348C7.49492 13.2157 8.43742 13.1229 9.29396 12.7681C10.1505 12.4133 10.8826 11.8125 11.3977 11.0416C11.9127 10.2708 12.1876 9.36449 12.1876 8.43738C12.1876 7.51028 11.9127 6.60399 11.3977 5.83314C10.8826 5.06228 10.1505 4.46147 9.29396 4.10669C8.43742 3.75191 7.49492 3.65908 6.58563 3.83996C5.67634 4.02083 4.84111 4.46728 4.18555 5.12285C4.14231 5.16762 4.09059 5.20333 4.0334 5.2279C3.97621 5.25247 3.9147 5.2654 3.85246 5.26594C3.79022 5.26648 3.7285 5.25462 3.67089 5.23105C3.61328 5.20748 3.56094 5.17267 3.51693 5.12866C3.47292 5.08465 3.43811 5.03231 3.41454 4.9747C3.39098 4.9171 3.37912 4.85537 3.37966 4.79313C3.3802 4.73089 3.39313 4.66938 3.4177 4.61219C3.44226 4.555 3.47797 4.50328 3.52274 4.46004C4.17657 3.80524 4.98185 3.32185 5.86719 3.05273C6.75253 2.7836 7.6906 2.73705 8.59824 2.91719C9.50587 3.09734 10.3551 3.49862 11.0705 4.08547C11.786 4.67232 12.3456 5.4266 12.6998 6.28147C13.054 7.13634 13.1918 8.06539 13.101 8.98628C13.0103 9.90716 12.6937 10.7914 12.1795 11.5607C11.6652 12.33 10.9691 12.9605 10.1529 13.3964C9.33661 13.8323 8.42543 14.0601 7.50009 14.0596Z" fill="#CB3A31"/>
<path d="M9.84375 11.25C9.71944 11.25 9.60023 11.2006 9.51234 11.1127L7.16859 8.76891C7.08068 8.68102 7.03128 8.56181 7.03125 8.4375V5.15625C7.03125 5.03193 7.08064 4.9127 7.16854 4.82479C7.25645 4.73689 7.37568 4.6875 7.5 4.6875C7.62432 4.6875 7.74355 4.73689 7.83146 4.82479C7.91936 4.9127 7.96875 5.03193 7.96875 5.15625V8.24344L10.1752 10.4498C10.2407 10.5154 10.2853 10.5989 10.3034 10.6898C10.3215 10.7807 10.3122 10.875 10.2767 10.9606C10.2413 11.0463 10.1812 11.1195 10.1041 11.171C10.0271 11.2225 9.93645 11.25 9.84375 11.25Z" fill="#CB3A31"/>
<path d="M2.8126 10.3126C2.9053 10.3126 2.9959 10.2851 3.07297 10.2336C3.15004 10.1821 3.2101 10.1089 3.24557 10.0232C3.28104 9.93758 3.29033 9.84334 3.27225 9.75243C3.25417 9.66151 3.20954 9.578 3.14401 9.51244L2.06916 8.4376L3.14401 7.36276C3.22939 7.27435 3.27664 7.15594 3.27557 7.03304C3.2745 6.91013 3.22521 6.79256 3.1383 6.70565C3.05139 6.61874 2.93382 6.56945 2.81091 6.56838C2.68801 6.56731 2.5696 6.61456 2.48119 6.69994L1.07494 8.10619C0.987067 8.1941 0.9377 8.3133 0.9377 8.4376C0.9377 8.56189 0.987067 8.6811 1.07494 8.76901L2.48119 10.1753C2.56908 10.2632 2.68829 10.3126 2.8126 10.3126Z" fill="#CB3A31"/>
<path d="M1.40625 8.90625H3.75C4.37137 8.90551 4.96708 8.65834 5.40646 8.21896C5.84584 7.77958 6.09301 7.18387 6.09375 6.5625C6.09375 6.43818 6.04436 6.31895 5.95646 6.23104C5.86855 6.14314 5.74932 6.09375 5.625 6.09375C5.50068 6.09375 5.38145 6.14314 5.29354 6.23104C5.20564 6.31895 5.15625 6.43818 5.15625 6.5625C5.15625 6.93546 5.00809 7.29315 4.74437 7.55687C4.48065 7.82059 4.12296 7.96875 3.75 7.96875H1.40625C1.28193 7.96875 1.1627 8.01814 1.07479 8.10604C0.986886 8.19395 0.9375 8.31318 0.9375 8.4375C0.9375 8.56182 0.986886 8.68105 1.07479 8.76896C1.1627 8.85686 1.28193 8.90625 1.40625 8.90625Z" fill="#CB3A31"/>
<path d="M8.4375 1.875H6.5625C6.43818 1.875 6.31895 1.82561 6.23104 1.73771C6.14314 1.6498 6.09375 1.53057 6.09375 1.40625C6.09375 1.28193 6.14314 1.1627 6.23104 1.07479C6.31895 0.986886 6.43818 0.9375 6.5625 0.9375H8.4375C8.56182 0.9375 8.68105 0.986886 8.76896 1.07479C8.85686 1.1627 8.90625 1.28193 8.90625 1.40625C8.90625 1.53057 8.85686 1.6498 8.76896 1.73771C8.68105 1.82561 8.56182 1.875 8.4375 1.875Z" fill="#CB3A31"/>
</g>
<defs>
<clipPath id="clip0_3876_5063">
<rect width="15" height="15" fill="white"/>
</clipPath>
</defs>
</svg>
