<svg width="15" height="15" viewBox="0 0 15 15" fill="none" xmlns="http://www.w3.org/2000/svg">
<g clip-path="url(#clip0_3876_5053)">
<path d="M7.50009 14.0605C6.76145 14.0619 6.02983 13.9173 5.34726 13.6351C4.6647 13.3528 4.04464 12.9384 3.52274 12.4157C3.47797 12.3725 3.44226 12.3207 3.4177 12.2635C3.39313 12.2064 3.3802 12.1448 3.37966 12.0826C3.37912 12.0204 3.39098 11.9586 3.41454 11.901C3.43811 11.8434 3.47292 11.7911 3.51693 11.7471C3.56094 11.7031 3.61328 11.6683 3.67089 11.6447C3.7285 11.6211 3.79022 11.6093 3.85246 11.6098C3.9147 11.6103 3.97621 11.6233 4.0334 11.6478C4.09059 11.6724 4.14231 11.7081 4.18555 11.7529C4.84111 12.4085 5.67634 12.8549 6.58563 13.0358C7.49492 13.2167 8.43742 13.1238 9.29396 12.7691C10.1505 12.4143 10.8826 11.8135 11.3977 11.0426C11.9127 10.2717 12.1876 9.36546 12.1876 8.43836C12.1876 7.51126 11.9127 6.60497 11.3977 5.83411C10.8826 5.06326 10.1505 4.46245 9.29396 4.10767C8.43742 3.75288 7.49492 3.66006 6.58563 3.84093C5.67634 4.02181 4.84111 4.46826 4.18555 5.12383C4.14231 5.1686 4.09059 5.20431 4.0334 5.22888C3.97621 5.25344 3.9147 5.26637 3.85246 5.26691C3.79022 5.26745 3.7285 5.25559 3.67089 5.23203C3.61328 5.20846 3.56094 5.17365 3.51693 5.12964C3.47292 5.08563 3.43811 5.03329 3.41454 4.97568C3.39098 4.91807 3.37912 4.85635 3.37966 4.79411C3.3802 4.73187 3.39313 4.67036 3.4177 4.61317C3.44226 4.55598 3.47797 4.50426 3.52274 4.46102C4.17657 3.80622 4.98185 3.32283 5.86719 3.0537C6.75253 2.78458 7.6906 2.73803 8.59824 2.91817C9.50587 3.09832 10.3551 3.4996 11.0705 4.08644C11.786 4.67329 12.3456 5.42758 12.6998 6.28245C13.054 7.13732 13.1918 8.06637 13.101 8.98725C13.0103 9.90813 12.6937 10.7924 12.1795 11.5617C11.6652 12.331 10.9691 12.9615 10.1529 13.3974C9.33661 13.8333 8.42543 14.0611 7.50009 14.0605Z" fill="#5CB489"/>
<path d="M9.84375 11.25C9.71944 11.25 9.60023 11.2006 9.51234 11.1127L7.16859 8.76891C7.08068 8.68102 7.03128 8.56181 7.03125 8.4375V5.15625C7.03125 5.03193 7.08064 4.9127 7.16854 4.82479C7.25645 4.73689 7.37568 4.6875 7.5 4.6875C7.62432 4.6875 7.74355 4.73689 7.83146 4.82479C7.91936 4.9127 7.96875 5.03193 7.96875 5.15625V8.24344L10.1752 10.4498C10.2407 10.5154 10.2853 10.5989 10.3034 10.6898C10.3215 10.7807 10.3122 10.875 10.2767 10.9606C10.2413 11.0463 10.1812 11.1195 10.1041 11.171C10.0271 11.2225 9.93645 11.25 9.84375 11.25Z" fill="#5CB489"/>
<path d="M4.21889 10.3116C4.1262 10.3116 4.03559 10.2841 3.95852 10.2326C3.88146 10.1811 3.82139 10.1079 3.78592 10.0222C3.75045 9.9366 3.74117 9.84237 3.75925 9.75145C3.77732 9.66054 3.82195 9.57702 3.88749 9.51147L4.96233 8.43662L3.88749 7.36178C3.8021 7.27337 3.75485 7.15496 3.75592 7.03206C3.75699 6.90915 3.80629 6.79159 3.8932 6.70468C3.98011 6.61777 4.09768 6.56847 4.22058 6.5674C4.34349 6.56633 4.46189 6.61358 4.5503 6.69897L5.95655 8.10522C6.04443 8.19312 6.09379 8.31233 6.09379 8.43662C6.09379 8.56092 6.04443 8.68013 5.95655 8.76803L4.5503 10.1743C4.46241 10.2622 4.3432 10.3116 4.21889 10.3116Z" fill="#5CB489"/>
<path d="M5.625 8.90625H3.28125C2.65988 8.90551 2.06417 8.65834 1.62479 8.21896C1.18541 7.77958 0.938244 7.18387 0.9375 6.5625C0.9375 6.43818 0.986886 6.31895 1.07479 6.23104C1.1627 6.14314 1.28193 6.09375 1.40625 6.09375C1.53057 6.09375 1.6498 6.14314 1.73771 6.23104C1.82561 6.31895 1.875 6.43818 1.875 6.5625C1.875 6.93546 2.02316 7.29315 2.28688 7.55687C2.5506 7.82059 2.90829 7.96875 3.28125 7.96875H5.625C5.74932 7.96875 5.86855 8.01814 5.95646 8.10604C6.04436 8.19395 6.09375 8.31318 6.09375 8.4375C6.09375 8.56182 6.04436 8.68105 5.95646 8.76896C5.86855 8.85686 5.74932 8.90625 5.625 8.90625Z" fill="#5CB489"/>
<path d="M8.4375 1.875H6.5625C6.43818 1.875 6.31895 1.82561 6.23104 1.73771C6.14314 1.6498 6.09375 1.53057 6.09375 1.40625C6.09375 1.28193 6.14314 1.1627 6.23104 1.07479C6.31895 0.986886 6.43818 0.9375 6.5625 0.9375H8.4375C8.56182 0.9375 8.68105 0.986886 8.76896 1.07479C8.85686 1.1627 8.90625 1.28193 8.90625 1.40625C8.90625 1.53057 8.85686 1.6498 8.76896 1.73771C8.68105 1.82561 8.56182 1.875 8.4375 1.875Z" fill="#5CB489"/>
</g>
<defs>
<clipPath id="clip0_3876_5053">
<rect width="15" height="15" fill="white"/>
</clipPath>
</defs>
</svg>
