<svg width="20" height="20" viewBox="0 0 20 20" fill="none" xmlns="http://www.w3.org/2000/svg">
<path d="M10 10.0003C12.3012 10.0003 14.1667 8.13485 14.1667 5.83366C14.1667 3.53247 12.3012 1.66699 10 1.66699C7.69885 1.66699 5.83337 3.53247 5.83337 5.83366C5.83337 8.13485 7.69885 10.0003 10 10.0003Z" stroke="#CB3A31" stroke-width="1.5" stroke-linecap="round" stroke-linejoin="round"/>
<path d="M2.84167 18.3333C2.84167 15.1083 6.05 12.5 10 12.5C10.8 12.5 11.575 12.6083 12.3 12.8083" stroke="#CB3A31" stroke-width="1.5" stroke-linecap="round" stroke-linejoin="round"/>
<path d="M18.3333 15.0003C18.3333 15.267 18.3 15.5253 18.2333 15.7753C18.1583 16.1087 18.025 16.4337 17.85 16.717C17.275 17.6837 16.2166 18.3337 15 18.3337C14.1416 18.3337 13.3666 18.0086 12.7833 17.4753C12.5333 17.2586 12.3166 17.0003 12.1499 16.717C11.8416 16.217 11.6666 15.6253 11.6666 15.0003C11.6666 14.1003 12.025 13.2753 12.6083 12.6753C13.2166 12.0503 14.0666 11.667 15 11.667C15.9833 11.667 16.875 12.092 17.475 12.7753C18.0083 13.367 18.3333 14.1503 18.3333 15.0003Z" stroke="#CB3A31" stroke-width="1.2" stroke-miterlimit="10" stroke-linecap="round" stroke-linejoin="round"/>
<path d="M15.8583 14.1162L14.1 15.8745" stroke="#CB3A31" stroke-width="1.2" stroke-miterlimit="10" stroke-linecap="round" stroke-linejoin="round"/>
<path d="M14.1166 14.1328L15.8832 15.8911" stroke="#CB3A31" stroke-width="1.2" stroke-miterlimit="10" stroke-linecap="round" stroke-linejoin="round"/>
</svg>
